<svg width="1440" height="166" viewBox="0 0 1440 166" fill="none" xmlns="http://www.w3.org/2000/svg">
<path d="M-11 14.3948H1445C1445 22.4066 1437.48 29.1166 1429.57 30.3488C1423.73 31.2568 1416.35 33.0712 1407.59 36.5409C1397.46 40.5522 1381.28 62.4546 1386.61 130.342C1386.77 132.367 1386.66 134.448 1386.22 136.431C1379.07 168.556 1370.92 165.003 1368.66 164.988C1361.96 164.944 1349.96 164.434 1344.39 131.215C1339.95 104.64 1388.88 38.2018 1345.91 40.4164C1302.94 42.631 1335.29 113.498 1316.08 112.945C1296.87 112.391 1295.75 78.6184 1294.85 71.9746C1285.24 1.10721 1274.36 39.0596 1260.98 38.2018C1246.37 37.2655 1248.84 16.6094 1221.04 22.146C1193.23 27.6825 1184.13 40.9701 1149.25 34.8799C1114.37 28.7898 1123.93 75.4674 1100.21 75.8501C1086.64 76.0691 1081.23 46.9611 1068.7 41.9137C1066.26 40.934 1063.58 41.6897 1061.13 42.6305C1042.94 49.624 1023.05 53.8842 996.067 32.1117C974.833 21.0387 981.509 25.2912 958.656 25.4679C895.967 54.8114 851.983 62.0088 804.967 36.9086C804.967 36.9086 778.977 25.434 761.994 25.4679C746.364 25.4991 711.259 40.953 694.25 40.9701C675.825 40.9886 668.972 44.8457 652.794 37.0945C640.049 32.1093 631.811 20.8399 621.07 23.8992C618.534 24.6218 616.57 26.5605 614.819 28.5336C597.569 47.9779 586.298 40.5671 584.544 39.3091C569.883 28.7898 570.743 26.2859 562.3 27.1288C539.885 29.3666 549.619 51.4895 550.672 65.3307C551.725 79.172 541.572 89.1377 530.956 87.4768C520.339 85.8158 541.067 53.7041 532.978 37.0945C524.889 20.485 496.349 23.8245 483.939 23.8069C470.918 23.7885 445.282 42.119 433.383 42.0774C415.051 42.0133 374.363 25.592 359.067 25.4679C338.858 25.3038 305.318 39.5906 291.322 39.3091C268.25 38.8451 261.911 34.0536 259.472 33.219C237.182 25.5908 226.836 18.8968 206.492 34.5903C202.722 37.4988 198.212 40.5546 197.157 45.1982C195.027 54.581 195.267 73.6156 195.267 90.7987C192.987 107.078 184.123 114.849 182.122 114.606C177.995 114.104 167.629 117.245 161.587 104.612C160.245 101.806 160.122 98.5987 160.476 95.5084C163.794 66.5541 157.629 57.3316 147.744 58.1333C135.56 59.1215 143.7 79.172 124.994 79.172C106.289 79.172 104.788 29.7212 92.1333 31.0044C59.5601 34.3072 73.9333 105.747 76.4611 121.803C78.9889 137.859 63.3167 138.413 56.2389 137.305C49.1611 136.198 42.0833 130.108 40.5667 117.928C39.05 105.747 50.9468 65.077 43.6 42.0774C38.324 25.5607 17.4099 39.5406 12.7611 39.3091C7.90518 39.0674 2.76014 37.2427 -1.49593 35.2632C-7.7054 32.3753 -11 25.8194 -11 18.9712V14.3948Z" fill="#FFF5E5"/>
<path d="M72.6722 124.46C72.2951 126.248 65.2061 133.936 57.5889 132.008C49.9717 130.081 45.6959 119.517 46.073 117.729C46.4502 115.942 48.1162 124.305 55.7334 126.232C63.3506 128.16 73.0494 122.672 72.6722 124.46Z" fill="white" fill-opacity="0.16"/>
<path d="M542.621 80.9661C542.384 82.0881 537.935 86.9133 533.154 85.7036C528.373 84.4939 530.328 74.3697 530.564 73.2477C530.801 72.1258 530.219 80.7307 535 81.9404C539.781 83.1502 542.858 79.8442 542.621 80.9661Z" fill="white" fill-opacity="0.16"/>
<path d="M133.143 71.2925C132.949 72.214 127.559 75.7381 121.085 74.1C114.612 72.4619 116.125 64.1232 116.319 63.2017C116.514 62.2802 116.66 69.5056 123.134 71.1438C129.607 72.7819 133.338 70.371 133.143 71.2925Z" fill="white" fill-opacity="0.16"/>
<path d="M1379.1 145.051C1378.35 146.692 1366.91 158.054 1359.91 154.225C1352.92 150.396 1352.05 133.108 1352.8 131.467C1353.55 129.826 1352.92 143.693 1359.91 147.522C1366.91 151.351 1379.84 143.41 1379.1 145.051Z" fill="white" fill-opacity="0.16"/>
<path d="M1321.44 99.7395C1321.28 100.803 1316.36 109.308 1311.39 108.419C1306.41 107.53 1302.72 97.9208 1302.88 96.8571C1303.04 95.7934 1305.19 103.743 1310.16 104.632C1315.14 105.521 1321.6 98.6758 1321.44 99.7395Z" fill="white" fill-opacity="0.16"/>
<path d="M610.37 29.0338C609.621 30.6748 595.977 41.4771 588.985 37.6481C581.992 33.8191 578.74 28.7698 579.489 27.1288C580.238 25.4879 581.992 29.9437 588.985 33.7727C595.977 37.6017 611.119 27.3929 610.37 29.0338Z" fill="white" fill-opacity="0.16"/>
<path d="M697.048 34.2659C696.243 35.8747 669.977 43.1961 660.767 37.667C651.556 32.1379 645.664 27.4238 646.47 25.815C647.275 24.2062 655.354 29.1251 664.564 34.6542C673.775 40.1833 697.853 32.6571 697.048 34.2659Z" fill="white" fill-opacity="0.16"/>
<path d="M306.756 27.6076C306.269 29.6678 290.058 35.2893 282.489 33.144C277.317 31.6779 268.713 30.6631 263.376 28.2241C259.399 26.4065 260.859 23.3164 265.063 24.391C270.737 25.8414 278.855 28.5053 283.501 29.8221C291.069 31.9674 307.176 25.8315 306.756 27.6076Z" fill="white" fill-opacity="0.16"/>
<path d="M-3.87241 28.8459C-3.3855 30.9061 7.02664 38.1713 11.4485 36.918C14.6787 36.0023 20.3492 36.0219 23.2563 33.8427C25.4058 32.2314 23.9238 29.7005 21.3514 30.3009C18.0179 31.079 13.2595 32.7961 10.5254 33.5711C6.1036 34.8244 -4.29218 27.0697 -3.87241 28.8459Z" fill="white" fill-opacity="0.16"/>
<path d="M1046.84 40.5563C1045.99 42.4711 1029.08 44.4849 1022.05 40.7489C1017.27 38.2093 1009.08 35.3753 1004.27 31.8594C1000.66 29.2147 1002.64 26.4584 1006.6 28.4375C1011.9 31.0865 1019.34 35.4255 1023.64 37.7102C1030.67 41.4463 1047.57 38.9056 1046.84 40.5563Z" fill="white" fill-opacity="0.16"/>
<path d="M1189.8 26.2279C1189.62 27.8883 1174.48 33.7426 1166.71 32.7317C1161.96 32.1122 1154.53 32.0229 1149.01 30.9727C1143.8 29.9828 1144.63 26.9588 1149.89 27.5964C1155.54 28.2824 1162.89 29.469 1167.23 30.0343C1174.99 31.0451 1189.96 24.7964 1189.8 26.2279Z" fill="white" fill-opacity="0.16"/>
<path d="M1106.48 70.3033C1105.45 71.366 1092.56 68.0411 1090.9 64.3282C1089.99 62.304 1088.38 60.291 1087.6 58.3687C1086.38 55.4133 1089.56 54.5445 1091.01 57.3719C1092.08 59.4711 1093.21 62.0485 1094.02 63.8542C1095.68 67.5671 1109.42 67.2707 1106.48 70.3033Z" fill="white" fill-opacity="0.16"/>
<path d="M1263.87 35.8093C1263.11 36.5911 1253.63 34.145 1252.41 31.4135C1251.91 30.3181 1251.15 29.2272 1250.54 28.1641C1248.98 25.4102 1251.68 24.5631 1253.05 27.4349C1253.66 28.7028 1254.25 30.0495 1254.7 31.0647C1255.93 33.7963 1266.03 33.5782 1263.87 35.8093Z" fill="white" fill-opacity="0.16"/>
<path d="M880.357 43.5466C882.04 48.0486 835.742 48.6979 821.646 41.3689C813.066 36.9079 803.956 32.1131 797.945 28.0132C792.763 24.4791 794.294 22.122 799.877 24.8338C807.751 28.6583 819.587 34.6974 829.53 39.0747C845.902 46.2829 878.674 39.0445 880.357 43.5466Z" fill="white" fill-opacity="0.16"/>
<path d="M449.323 30.9296C448.836 32.9898 432.625 38.6113 425.056 36.4661C419.884 34.9999 411.28 33.9851 405.943 31.5461C401.965 29.7285 403.426 26.6384 407.63 27.713C413.304 29.1634 421.422 31.8274 426.067 33.1442C433.636 35.2894 449.743 29.1535 449.323 30.9296Z" fill="white" fill-opacity="0.16"/>
<path d="M183.616 101.444C189.455 98.1233 190.206 100.679 184.836 104.764C183.799 105.553 182.712 106.277 181.617 106.855C177.179 109.197 172.736 108.636 169.483 106.855C166.984 105.486 163.646 95.3824 163.922 92.4598C164.516 86.171 168.209 87.8269 169.219 94.1299C169.791 97.6974 171.24 101.45 174.033 102.979C176.896 104.547 180.435 103.253 183.616 101.444Z" fill="white" fill-opacity="0.16"/>
</svg>
