<svg width="44" height="44" viewBox="0 0 44 44" fill="none" xmlns="http://www.w3.org/2000/svg">
<g clip-path="url(#clip0_117_5928)">
<path d="M28.7844 34.1172C29.5292 33.3724 30.3885 33 31.3625 33C32.3365 33 33.1672 33.3724 33.8547 34.1172C34.5995 34.862 34.9719 35.7214 34.9719 36.6953C34.9719 37.6693 34.5995 38.5286 33.8547 39.2734C33.1672 39.9609 32.3365 40.3047 31.3625 40.3047C30.3885 40.3047 29.5292 39.9609 28.7844 39.2734C28.0396 38.5286 27.6672 37.6693 27.6672 36.6953C27.6672 35.7214 28.0396 34.862 28.7844 34.1172ZM1.97188 3.69531H7.9875L9.70625 7.30469H36.8625C37.3781 7.30469 37.8078 7.50521 38.1516 7.90625C38.4953 8.25 38.6672 8.67969 38.6672 9.19531C38.6672 9.2526 38.5813 9.53906 38.4094 10.0547L31.8781 21.9141C31.1906 23.1745 30.1307 23.8047 28.6984 23.8047H15.0344L13.4016 26.8125L13.3156 27.0703C13.3156 27.3568 13.4589 27.5 13.7453 27.5H34.9719V31.1953H12.9719C11.9979 31.1953 11.1385 30.8229 10.3938 30.0781C9.70625 29.3333 9.3625 28.474 9.3625 27.5C9.3625 26.9271 9.50573 26.3542 9.79219 25.7812L12.2844 21.2266L5.66719 7.30469H1.97188V3.69531ZM10.3938 34.1172C11.1385 33.3724 11.9979 33 12.9719 33C13.9458 33 14.8052 33.3724 15.55 34.1172C16.2948 34.862 16.6672 35.7214 16.6672 36.6953C16.6672 37.6693 16.2948 38.5286 15.55 39.2734C14.8052 39.9609 13.9458 40.3047 12.9719 40.3047C11.9979 40.3047 11.1385 39.9609 10.3938 39.2734C9.70625 38.5286 9.3625 37.6693 9.3625 36.6953C9.3625 35.7214 9.70625 34.862 10.3938 34.1172Z" fill="#F37210"/>
</g>
<defs>
<clipPath id="clip0_117_5928">
<rect width="44" height="44" fill="white"/>
</clipPath>
</defs>
</svg>
